<svg width="375" height="457" viewBox="0 0 375 457" fill="none" xmlns="http://www.w3.org/2000/svg">
<path d="M49.9715 98.5436C54.6592 113.171 69.359 120.991 76.1229 123.072C48.5143 117.531 39.9817 97.0453 40.0924 89.6597C40.2031 82.274 30.3058 32.9907 110.992 35.8894C191.678 38.788 244.87 38.2421 264.853 27.6422C284.836 17.0424 290.778 11.0467 296.596 0C294.848 15.7186 291.093 21.1466 282.508 34.2633C273.923 47.38 200.805 118.259 154.799 158.02C108.817 197.76 60.1413 238.024 31.3557 260.146C41.2164 252.618 115.664 227.902 166.476 231.528C230.09 236.067 275.339 257.982 319.388 297.999C354.628 330.012 350.143 370.432 343.496 386.64C360.694 312.876 263.95 267.544 213.429 254.098C302.036 288.194 335.829 332.474 336.823 368.434C337.818 404.394 316.361 445.789 235.219 455.226C154.077 464.663 56.2803 411.784 81.5428 333.148C101.753 270.239 166.024 267.395 195.634 273.836C163.07 267.952 85.4389 283.16 92.9316 357.845C99.3474 421.797 178.405 450.971 245.094 439.849C311.784 428.726 326.308 386.929 312.742 347.495C299.177 308.061 258.305 290.48 241.844 281.41C225.383 272.339 199.107 258.753 147.376 249.793C105.991 242.626 19.0693 268.692 0 275.168C37.7161 251.577 195.804 104.475 262.169 42.7227L265.63 39.5017C242.9 55.4286 167.935 56.3991 139.945 56.2545C111.956 56.1099 91.5488 55.1636 74.5249 59.4317C57.501 63.6998 44.1119 80.2595 49.9715 98.5436Z" fill="black"/>
<path d="M331.534 125.568C343.997 108.647 345.897 104.803 344.65 95.0724C342.513 78.3885 319.578 73.1257 302.073 75.1356C280.15 77.6528 248.114 96.9705 251.801 141.681C258.346 221.041 365.264 224.278 374.332 318.776C376.122 370.999 355.722 400.14 328.244 417.694C327.774 418.006 327.316 418.294 326.872 418.557C327.331 418.272 327.788 417.985 328.244 417.694C341.734 408.731 365.158 379.59 360.719 326.804C354.978 258.523 239.588 236.015 229.424 155.867C219.26 75.7191 278.862 69.9272 301.371 67.8281C319.795 66.1099 350.411 69.807 352.092 94.7128C352.928 107.097 343.724 115.073 331.534 125.568Z" fill="black"/>
</svg>
