<svg width="248" height="305" viewBox="0 0 248 305" fill="none" xmlns="http://www.w3.org/2000/svg">
<path d="M14.2901 88.5622C18.7964 97.5288 29.0663 101.088 33.6379 101.747C15.2775 100.965 7.698 88.6061 7.01986 83.8279C6.34172 79.0497 -5.04007 48.242 47.269 41.9475C99.5781 35.6529 133.813 29.9176 145.619 21.0538C157.426 12.1899 160.648 7.71877 163.278 -4.4021e-05C163.746 10.3223 161.876 14.2057 157.673 23.5406C153.469 32.8754 113.527 86.0227 87.9035 116.342C62.2938 146.645 35.001 177.559 18.6892 194.75C24.282 188.894 69.767 165.407 102.891 162.605C144.361 159.097 175.755 168.663 208.212 190.033C234.179 207.13 235.39 233.672 232.749 244.806C236.35 195.456 169.384 175.987 135.45 172.421C196.031 185.461 222.31 210.621 226.6 233.731C230.891 256.84 221.259 285.729 169.908 300.032C118.557 314.334 50.1457 290.101 58.4511 236.79C65.0954 194.141 106.24 185.801 125.982 186.962C104.392 186.459 55.8898 204.131 68.2993 251.578C78.9253 292.206 132.851 303.035 174.714 289.107C216.577 275.18 221.699 246.732 208.951 222.653C196.204 198.573 168.072 191.362 156.54 187.174C145.007 182.985 126.69 176.875 92.4319 176.327C65.0255 175.89 11.6359 201.51 6.19686e-07 207.619C22.3107 188.236 112.027 73.6466 147.324 28.6296C134.287 41.2097 86.0588 49.4227 68.0005 52.1619C49.9421 54.901 36.6908 56.3555 26.1494 60.8331C15.6079 65.3106 8.65713 77.3539 14.2901 88.5622Z" fill="black"/>
<path d="M198.544 77.5107C204.86 65.3278 205.695 62.6546 203.904 56.5003C200.833 45.9482 185.514 44.8724 174.433 47.9411C160.556 51.7844 141.864 67.4948 148.779 95.9798C161.051 146.54 230.305 137.808 245.741 197.884C252.195 231.409 242.001 252.282 226.068 266.393C225.797 266.642 225.531 266.874 225.271 267.089C225.539 266.859 225.804 266.627 226.068 266.393C233.855 259.243 245.998 238.064 237.78 204.443C227.149 160.953 150.478 158.102 135.792 107.4C121.107 56.6984 158.942 46.9284 173.239 43.2957C184.942 40.3221 205.054 39.6101 208.665 55.5151C210.461 63.4241 205.337 69.5032 198.544 77.5107Z" fill="black"/>
</svg>
