<svg width="512" height="512" viewBox="0 0 512 512" fill="none" xmlns="http://www.w3.org/2000/svg">
<g clip-path="url(#clip0_3_2)">
<rect width="512" height="512" fill="white" fill-opacity="0.5"/>
<rect width="512" height="512" fill="url(#paint0_linear_3_2)"/>
<path d="M92.4524 123.451C97.1401 138.079 111.84 145.898 118.604 147.98C90.9952 142.439 82.4626 121.953 82.5733 114.567C82.684 107.182 72.7867 57.8986 153.473 60.7972C234.159 63.6959 287.35 63.1499 307.334 52.5501C327.317 41.9502 333.259 35.9546 339.077 24.9078C337.329 40.6264 333.574 46.0545 324.989 59.1712C316.404 72.2879 243.286 143.166 197.28 182.928C151.298 222.668 102.622 262.932 73.8366 285.054C83.6973 277.526 158.145 252.81 208.957 256.436C272.571 260.975 317.819 282.89 361.869 322.907C397.109 354.92 392.624 395.34 385.977 411.548C403.174 337.784 306.431 292.452 255.91 279.006C344.517 313.102 378.31 357.382 379.304 393.342C380.299 429.302 358.842 470.697 277.7 480.134C196.558 489.571 98.7612 436.691 124.024 358.056C144.234 295.147 208.505 292.303 238.115 298.744C205.55 292.86 127.92 308.067 135.412 382.753C141.828 446.705 220.886 475.879 287.575 464.757C354.265 453.634 368.789 411.837 355.223 372.403C341.657 332.968 300.786 315.388 284.325 306.317C267.864 297.247 241.588 283.66 189.857 274.701C148.472 267.534 61.5502 293.599 42.4809 300.075C80.197 276.485 238.285 129.383 304.65 67.6306L308.111 64.4096C285.381 80.3364 210.416 81.307 182.426 81.1623C154.436 81.0177 134.03 80.0715 117.006 84.3395C99.9819 88.6076 86.5928 105.167 92.4524 123.451Z" fill="white"/>
<path d="M374.015 150.476C386.478 133.555 388.378 129.711 387.131 119.98C384.994 103.296 362.059 98.0335 344.554 100.043C322.631 102.561 290.595 121.878 294.282 166.589C300.826 245.949 407.745 249.186 416.813 343.684C418.603 395.907 398.203 425.048 370.725 442.601C370.255 442.914 369.797 443.201 369.352 443.465C369.812 443.18 370.269 442.892 370.725 442.601C384.215 433.639 407.639 404.498 403.2 351.712C397.459 283.431 282.069 260.923 271.905 180.775C261.741 100.627 321.343 94.835 343.852 92.7359C362.276 91.0177 392.891 94.7148 394.573 119.621C395.409 132.005 386.205 139.981 374.015 150.476Z" fill="white"/>
</g>
<defs>
<linearGradient id="paint0_linear_3_2" x1="256" y1="-280.5" x2="256" y2="877" gradientUnits="userSpaceOnUse">
<stop offset="0.305446" stop-color="#F6B525"/>
<stop offset="1" stop-color="#DF830B"/>
</linearGradient>
<clipPath id="clip0_3_2">
<rect width="512" height="512" fill="white"/>
</clipPath>
</defs>
</svg>
