<svg width="827" height="105" viewBox="0 0 827 105" fill="none" xmlns="http://www.w3.org/2000/svg">
<path d="M93.6 94.1C87.4 101.3 79.0667 104.9 68.6 104.9C60.6 104.9 52.4333 103.5 44.1 100.7C34.6333 97.5 27.1667 94.7 21.7 92.3C11.4333 87.7667 4.6 85.4 1.2 85.2H2.38419e-07V84.3L42 18.1H8.3C6.03333 18.1667 4.33333 19.1667 3.2 21.1C2.66667 22.0333 2.4 23.0333 2.4 24.1V25.9H1.4V13.3C2.4 13.7 4.16667 14.1 6.7 14.5C9.23333 14.9 10.9667 15.1 11.9 15.1C12.9 15.1 13.4333 15.1 13.5 15.1H41.4C44.2 15.1 46.5667 14.9333 48.5 14.6C50.4333 14.2667 51.6 14 52 13.8V14.7L8.3 83.7C8.9 83.8333 12.4667 84.9667 19 87.1C41.8 94.5667 58.7 98.3 69.7 98.3C78.1667 98.3 85.9667 96.6333 93.1 93.3L93.6 94.1ZM64.8742 84.2C66.6076 84.2 68.0742 83.6 69.2742 82.4C70.5409 81.1333 71.2076 79.6333 71.2742 77.9V21.9C71.2742 20.3 70.6409 18.9667 69.3742 17.9C68.1076 16.7667 66.6076 16.2 64.8742 16.2H63.6742L63.5742 15.2H92.8742C94.9409 15.2 97.1742 15 99.5742 14.6C102.041 14.2 103.774 13.8 104.774 13.4V26H103.774V24.2C103.774 22.6 103.208 21.2333 102.074 20.1C101.008 18.9667 99.7076 18.3667 98.1742 18.3H77.7742V49.2H94.6742C96.0076 49.1333 97.1409 48.6333 98.0742 47.7C99.0076 46.7667 99.4742 45.6 99.4742 44.2V42.8H100.474V58.6H99.4742V57.1C99.4742 55.7667 99.0076 54.6333 98.0742 53.7C97.2076 52.7667 96.1076 52.2667 94.7742 52.2H77.7742V82.1H92.0742C97.0076 82.1 100.774 81 103.374 78.8C105.974 76.6 108.141 73.3333 109.874 69H110.874L105.074 85.2H63.5742V84.2H64.8742ZM193.089 16.2C191.422 16.2 189.989 16.8 188.789 18C187.589 19.1333 186.956 20.5333 186.889 22.2V73.8C186.889 77.6667 187.122 81.3333 187.589 84.8L187.789 86.6H186.889L132.389 28.4V78.2C132.389 79.8667 132.989 81.3 134.189 82.5C135.389 83.6333 136.822 84.2 138.489 84.2H140.389V85.2H119.789V84.2H121.689C123.356 84.2 124.789 83.6333 125.989 82.5C127.189 81.3 127.789 79.8333 127.789 78.1V26.2C127.789 22.1333 127.556 18.5 127.089 15.3L126.889 13.7H127.889L182.389 71.9V22.3C182.322 20.5667 181.689 19.1333 180.489 18C179.289 16.8 177.856 16.2 176.189 16.2H174.289V15.2H194.889V16.2H193.089ZM269.506 84.2H270.306V85.2H247.806V84.2H248.706C250.106 84.2 251.14 83.7667 251.806 82.9C252.54 81.9667 252.906 81.1 252.906 80.3C252.906 79.5 252.773 78.7 252.506 77.9L246.106 60.9H219.106L212.406 78C212.14 78.8 212.006 79.6 212.006 80.4C212.006 81.1333 212.34 81.9667 213.006 82.9C213.74 83.7667 214.806 84.2 216.206 84.2H217.106V85.2H197.006V84.2H197.906C199.573 84.2 201.206 83.6667 202.806 82.6C204.406 81.5333 205.706 79.9667 206.706 77.9L229.306 24.1C231.773 18.7 233.006 15.2667 233.006 13.8H233.906L260.706 77.9C261.64 79.9667 262.906 81.5333 264.506 82.6C266.106 83.6667 267.773 84.2 269.506 84.2ZM220.306 57.9H244.906L232.906 25.8L220.306 57.9ZM276.398 84.2C278.131 84.2 279.598 83.6 280.798 82.4C282.064 81.1333 282.731 79.6333 282.798 77.9V22.4C282.731 20.6667 282.064 19.2 280.798 18C279.598 16.8 278.131 16.2 276.398 16.2H275.098V15.2H296.998V16.2H295.698C293.964 16.2 292.464 16.8 291.198 18C289.998 19.2 289.364 20.6667 289.298 22.4V77.9C289.298 79.6333 289.931 81.1333 291.198 82.4C292.464 83.6 293.964 84.2 295.698 84.2H296.998V85.2H275.098V84.2H276.398ZM342.787 15.2C353.453 15.2 362.087 18.4333 368.687 24.9C375.353 31.3 378.687 39.7333 378.687 50.2C378.687 60.6667 375.353 69.1333 368.687 75.6C362.087 82 353.453 85.2 342.787 85.2H308.887V84.2H310.187C311.92 84.2 313.387 83.6 314.587 82.4C315.853 81.1333 316.52 79.6333 316.587 77.9V21.9C316.587 20.3 315.92 18.9667 314.587 17.9C313.32 16.7667 311.853 16.2 310.187 16.2H308.987L308.887 15.2H342.787ZM323.087 18.2V82.2H342.787C348.387 82.2 353.32 80.8667 357.587 78.2C361.92 75.5333 365.253 71.8 367.587 67C369.987 62.1333 371.187 56.5333 371.187 50.2C371.187 40.6 368.553 32.8667 363.287 27C358.087 21.1333 351.253 18.2 342.787 18.2H323.087ZM388.898 84.2C390.631 84.2 392.098 83.6 393.298 82.4C394.564 81.1333 395.231 79.6333 395.298 77.9V21.9C395.298 20.3 394.664 18.9667 393.398 17.9C392.131 16.7667 390.631 16.2 388.898 16.2H387.698L387.598 15.2H416.898C418.964 15.2 421.198 15 423.598 14.6C426.064 14.2 427.798 13.8 428.798 13.4V26H427.798V24.2C427.798 22.6 427.231 21.2333 426.098 20.1C425.031 18.9667 423.731 18.3667 422.198 18.3H401.798V49.2H418.698C420.031 49.1333 421.164 48.6333 422.098 47.7C423.031 46.7667 423.498 45.6 423.498 44.2V42.8H424.498V58.6H423.498V57.1C423.498 55.7667 423.031 54.6333 422.098 53.7C421.231 52.7667 420.131 52.2667 418.798 52.2H401.798V82.1H416.098C421.031 82.1 424.798 81 427.398 78.8C429.998 76.6 432.164 73.3333 433.898 69H434.898L429.098 85.2H387.598V84.2H388.898ZM476.213 58.6C472.746 63.1333 471.013 68.0333 471.013 73.3C471.013 79.5667 473.646 84.4333 478.913 87.9C481.979 89.9667 485.446 91 489.312 91C493.246 91 496.646 90.2333 499.513 88.7C504.913 85.9 507.946 81.2 508.613 74.6C508.679 74.1333 508.713 73.6667 508.713 73.2C508.713 70.7333 508.013 68.0667 506.613 65.2C505.279 62.3333 503.079 59.7 500.013 57.3L482.013 43.1C478.079 40.0333 476.113 36.0667 476.113 31.2C476.113 26.3333 477.679 22.2333 480.813 18.9C483.946 15.5 488.179 13.8 493.513 13.8C496.179 13.8 499.079 14.1333 502.213 14.8H506.213L506.413 27.1H505.413C505.346 23.9 504.179 21.4 501.913 19.6C499.713 17.7333 496.913 16.8 493.513 16.8C490.179 16.8 487.379 17.9333 485.113 20.2C482.846 22.4 481.713 25.2667 481.713 28.8C481.713 32.2667 483.179 35.1667 486.113 37.5L504.613 52.1C511.946 57.9 515.613 64.9 515.613 73.1C515.613 79.2333 513.179 84.5 508.313 88.9C504.113 92.7 498.513 94.6 491.513 94.6C487.246 94.6 483.446 93.8 480.113 92.2C473.846 89.2667 470.079 84.2667 468.813 77.2C468.613 76.1333 468.513 74.8 468.513 73.2C468.513 71.5333 468.979 69.3 469.913 66.5C470.846 63.6333 472.646 60.7667 475.313 57.9L476.213 58.6ZM526.495 84.2C528.229 84.2 529.695 83.6 530.895 82.4C532.162 81.1333 532.829 79.6333 532.895 77.9V22.4C532.829 20.6667 532.162 19.2 530.895 18C529.695 16.8 528.229 16.2 526.495 16.2H525.195V15.2H547.095V16.2H545.795C544.062 16.2 542.562 16.8 541.295 18C540.095 19.2 539.462 20.6667 539.395 22.4V77.9C539.395 79.6333 540.029 81.1333 541.295 82.4C542.562 83.6 544.062 84.2 545.795 84.2H547.095V85.2H525.195V84.2H526.495ZM642.984 84.2H644.584V85.2H622.884V84.3H624.384C625.518 84.3 626.484 83.8667 627.284 83C628.084 82.1333 628.418 81.1333 628.284 80L623.784 29.7L602.784 76.4C600.918 80.4667 599.784 83.8667 599.384 86.6H598.384L572.784 31.1L568.484 80C568.351 81.0667 568.684 82.0667 569.484 83C570.284 83.8667 571.251 84.3 572.384 84.3H573.884V85.2H554.484V84.2H556.084C557.951 84.2 559.551 83.6333 560.884 82.5C562.284 81.3667 563.118 79.8333 563.384 77.9L570.884 13.8H571.884L599.784 74.1L627.084 13.8H627.984L635.684 77.9C635.951 79.8333 636.784 81.3667 638.184 82.5C639.584 83.6333 641.184 84.2 642.984 84.2ZM694.186 4.30001C696.919 4.30001 698.753 3.16668 699.686 0.900007H700.686C700.286 4.23334 699.153 6.56667 697.286 7.90001C696.353 8.50001 695.219 8.80001 693.886 8.80001C692.553 8.80001 690.486 8.06667 687.686 6.60001C684.953 5.13334 683.086 4.40001 682.086 4.40001C679.553 4.40001 677.753 5.76668 676.686 8.50001H675.686C676.086 5.90001 676.853 3.83334 677.986 2.30001C679.119 0.766673 680.486 6.4373e-06 682.086 6.4373e-06C683.686 6.4373e-06 685.819 0.73334 688.486 2.20001C691.219 3.60001 693.119 4.30001 694.186 4.30001ZM659.286 23.9C666.419 17.1667 675.653 13.8 686.986 13.8C698.386 13.8 707.653 17.1667 714.786 23.9C721.919 30.5667 725.486 39.3333 725.486 50.2C725.486 61.0667 721.919 69.8667 714.786 76.6C707.653 83.2667 698.386 86.6 686.986 86.6C675.653 86.6 666.419 83.2667 659.286 76.6C652.153 69.8667 648.586 61.0667 648.586 50.2C648.586 39.3333 652.153 30.5667 659.286 23.9ZM664.686 74.4C670.353 80.5333 677.786 83.6 686.986 83.6C696.186 83.6 703.586 80.5333 709.186 74.4C714.853 68.2667 717.686 60.2 717.686 50.2C717.686 40.2 714.853 32.1333 709.186 26C703.586 19.8667 696.186 16.8 686.986 16.8C677.786 16.8 670.353 19.8667 664.686 26C659.086 32.1333 656.286 40.2 656.286 50.2C656.286 60.2 659.086 68.2667 664.686 74.4ZM734.698 84.2C736.432 84.2 737.898 83.6 739.098 82.4C740.365 81.1333 741.032 79.6333 741.098 77.9V21.9C741.098 20.3 740.465 18.9667 739.198 17.9C737.932 16.7667 736.432 16.2 734.698 16.2H733.498L733.398 15.2H762.698C764.765 15.2 766.998 15 769.398 14.6C771.865 14.2 773.598 13.8 774.598 13.4V26H773.598V24.2C773.598 22.6 773.032 21.2333 771.898 20.1C770.832 18.9667 769.532 18.3667 767.998 18.3H747.598V49.2H764.498C765.832 49.1333 766.965 48.6333 767.898 47.7C768.832 46.7667 769.298 45.6 769.298 44.2V42.8H770.298V58.6H769.298V57.1C769.298 55.7667 768.832 54.6333 767.898 53.7C767.032 52.7667 765.932 52.2667 764.598 52.2H747.598V82.1H761.898C766.832 82.1 770.598 81 773.198 78.8C775.798 76.6 777.965 73.3333 779.698 69H780.698L774.898 85.2H733.398V84.2H734.698ZM791.213 81.1C791.013 80.1667 790.913 78.3667 790.913 75.7C790.913 73.0333 791.413 70.2 792.413 67.2H793.313C793.247 67.9333 793.213 68.6667 793.213 69.4C793.213 73.4667 794.447 76.8667 796.913 79.6C799.38 82.2667 802.647 83.6 806.713 83.6C810.913 83.6 814.347 82.3333 817.013 79.8C819.747 77.2667 821.113 74.1 821.113 70.3C821.113 66.4333 819.813 63.3 817.213 60.9L798.013 43.1C794.413 39.7667 792.613 35.7333 792.613 31C792.613 26.2667 794.18 22.2333 797.313 18.9C800.513 15.5 804.813 13.8 810.213 13.8C812.747 13.8 815.613 14.1333 818.813 14.8H822.713V27.1H821.813C821.813 23.9667 820.713 21.4667 818.513 19.6C816.38 17.7333 813.613 16.8 810.213 16.8C806.813 16.8 803.947 17.9333 801.613 20.2C799.347 22.4667 798.213 25.3 798.213 28.7C798.213 32.1 799.547 35.0333 802.213 37.5L821.913 55.7C825.247 58.7667 826.913 62.9667 826.913 68.3C826.913 73.6333 825.213 78.0333 821.813 81.5C818.413 84.9 813.88 86.6 808.213 86.6C805.28 86.6 802.147 86.1333 798.813 85.2C795.547 84.3333 793.013 82.9667 791.213 81.1Z" fill="black"/>
</svg>
